<?xml version="1.0" standalone="no"?>
<!DOCTYPE svg PUBLIC "-//W3C//DTD SVG 20010904//EN"
 "http://www.w3.org/TR/2001/REC-SVG-20010904/DTD/svg10.dtd">
<svg version="1.0" xmlns="http://www.w3.org/2000/svg"
 width="1920.000000pt" height="1080.000000pt" viewBox="0 0 1920.000000 1080.000000"
 preserveAspectRatio="xMidYMid meet">

<g transform="translate(0.000000,1080.000000) scale(0.100000,-0.100000)"
fill="#000000" stroke="none">
<path d="M0 5400 l0 -5400 9600 0 9600 0 0 5400 0 5400 -9600 0 -9600 0 0
-5400z m8539 5130 c-4 -30 -13 -109 -19 -175 -6 -66 -15 -154 -20 -195 -6 -41
-17 -151 -25 -245 -9 -93 -22 -216 -30 -271 -9 -63 -15 -178 -15 -299 0 -171
2 -201 17 -217 19 -21 43 -24 43 -4 0 7 -5 28 -12 46 -9 27 -8 55 6 139 9 58
32 209 51 334 42 274 117 609 180 797 15 44 15 43 9 -60 -5 -97 -45 -333 -79
-475 -8 -33 -21 -109 -30 -170 -8 -60 -19 -137 -25 -170 -6 -33 -14 -94 -19
-135 -5 -41 -16 -124 -25 -185 -8 -60 -20 -174 -27 -253 -12 -148 -9 -172 25
-159 13 5 16 23 16 81 0 117 26 270 90 531 32 132 68 280 79 330 30 128 45
134 37 15 -4 -52 -11 -111 -16 -130 -5 -19 -14 -96 -20 -170 -15 -186 -19
-220 -35 -255 -7 -16 -19 -70 -25 -120 -16 -124 -15 -121 -46 -200 -67 -173
-42 -540 55 -815 49 -139 92 -210 111 -181 4 8 8 61 8 118 0 101 1 106 28 134
15 16 30 29 34 29 3 0 4 -18 2 -40 -5 -46 15 -55 39 -19 12 18 14 -3 14 -154
0 -123 4 -178 12 -189 7 -8 17 -66 23 -129 5 -63 14 -150 19 -194 5 -44 7
-138 5 -210 -4 -116 -6 -131 -24 -144 -11 -7 -20 -17 -20 -21 0 -18 -88 -94
-124 -106 -80 -28 -133 -71 -185 -148 -14 -22 -34 -51 -43 -65 -10 -14 -22
-36 -27 -48 -5 -11 -15 -24 -20 -28 -6 -3 -11 -17 -11 -31 0 -14 -16 -41 -37
-65 -43 -48 -54 -73 -95 -224 -27 -104 -29 -118 -24 -250 2 -77 8 -165 13
-195 10 -66 23 -74 134 -88 81 -10 127 -27 140 -52 34 -65 36 -77 23 -109 -7
-17 -17 -31 -22 -31 -4 0 -27 -35 -49 -77 -32 -60 -40 -85 -36 -111 3 -18 9
-35 14 -38 5 -3 9 -16 9 -29 0 -14 9 -29 20 -35 12 -6 25 -22 30 -35 5 -13 21
-29 36 -37 15 -7 29 -18 31 -23 5 -15 -919 -8 -952 7 -27 12 -34 48 -10 48 19
0 20 24 1 39 -8 7 -48 16 -91 20 -42 5 -78 11 -81 13 -2 3 13 16 33 29 47 31
72 66 79 111 5 30 3 38 -17 52 -13 8 -50 19 -82 24 -31 5 -66 17 -78 28 -13
11 -32 17 -50 16 -16 -2 -29 1 -29 7 0 6 4 11 9 11 18 0 61 50 61 71 0 26 -27
59 -48 59 -9 0 -26 -10 -39 -22 -30 -28 -37 -19 -23 32 8 30 8 46 1 53 -17 17
-13 37 14 73 30 40 32 60 5 74 -25 13 -25 25 0 57 15 19 17 30 10 43 -6 10
-10 32 -10 48 0 16 -6 35 -14 42 -8 6 -16 28 -18 48 -2 30 -10 41 -44 64 -40
27 -41 29 -77 165 -20 75 -35 138 -33 140 2 2 20 -17 40 -42 21 -25 46 -50 57
-56 19 -10 19 -9 3 28 -9 21 -41 133 -71 248 -41 161 -55 237 -62 325 -4 63
-6 117 -5 118 1 2 14 -14 27 -36 27 -41 107 -111 107 -93 0 6 -16 29 -35 50
-32 35 -37 49 -49 133 -8 51 -17 127 -21 168 l-7 75 22 -27 c12 -16 29 -28 37
-28 14 0 15 11 10 73 -3 39 -9 81 -12 92 -4 11 34 -22 84 -72 51 -51 98 -93
106 -93 21 0 20 2 -32 72 -128 169 -144 199 -158 297 -8 50 -16 95 -19 100 -7
10 -37 194 -33 198 2 1 20 -20 40 -47 35 -47 67 -65 67 -39 0 55 -28 151 -58
199 -24 38 -37 71 -40 105 l-4 50 32 -45 c54 -73 111 -140 121 -140 12 0 -23
69 -66 128 -53 75 -93 161 -119 263 -29 107 -33 109 71 -33 53 -73 74 -90 87
-69 5 8 -96 165 -205 321 -26 36 -52 83 -59 105 -7 22 -27 69 -45 105 -30 59
-105 244 -105 257 0 4 12 -10 28 -30 79 -104 172 -219 222 -277 94 -107 197
-250 241 -333 34 -65 45 -79 70 -84 21 -4 39 -20 61 -52 40 -58 50 -65 66 -44
14 19 16 75 3 89 -11 11 -26 114 -17 114 4 0 11 -11 16 -25 5 -14 16 -25 25
-25 26 0 17 66 -20 147 -19 42 -34 78 -32 80 2 2 12 -6 22 -17 39 -43 61 -11
26 38 -10 15 -33 71 -51 125 -22 67 -39 102 -55 113 -12 8 -37 44 -56 80 -31
61 -33 75 -41 207 -5 78 -7 154 -6 168 2 20 28 -26 102 -182 55 -114 105 -210
112 -213 24 -9 26 14 4 72 -28 72 -40 112 -34 112 16 0 56 -37 75 -68 51 -86
58 -103 58 -134 -1 -45 102 -282 124 -286 10 -2 17 3 17 12 0 33 -123 382
-141 402 -11 11 -19 35 -19 53 0 19 -10 46 -26 66 -19 26 -34 73 -60 192 -19
87 -39 183 -43 213 -10 66 -2 320 10 320 5 0 9 -9 9 -21 0 -25 149 -472 192
-576 21 -51 35 -73 47 -73 28 0 31 10 14 49 -25 57 -20 171 13 256 25 66 26
77 20 185 -3 63 -11 142 -17 175 -11 59 -6 235 10 335 l7 45 11 -70 c6 -38 23
-164 38 -280 31 -242 78 -532 100 -620 34 -130 35 -135 53 -135 9 0 30 16 46
36 25 32 28 41 22 87 -21 184 -27 311 -23 447 5 159 40 511 55 565 12 40 20
-107 27 -500 8 -396 23 -585 56 -692 11 -34 31 -43 46 -20 4 6 8 118 8 247 1
264 6 303 81 605 80 320 138 491 113 335z m2155 -39 c36 -113 121 -454 143
-571 13 -74 17 -148 18 -330 0 -129 4 -241 8 -247 15 -23 35 -14 46 20 33 108
48 290 56 692 7 394 15 540 27 500 15 -54 50 -406 55 -565 4 -136 -2 -263 -23
-447 -6 -46 -3 -55 22 -87 16 -20 37 -36 46 -36 18 0 19 5 53 135 22 88 69
378 100 620 15 116 32 242 38 280 l11 70 7 -45 c17 -111 21 -268 9 -341 -7
-40 -14 -128 -14 -194 -1 -104 2 -127 22 -173 29 -66 33 -188 9 -243 -17 -39
-14 -49 14 -49 12 0 26 22 47 73 43 104 192 551 192 576 0 12 4 21 9 21 12 0
20 -254 10 -320 -4 -30 -24 -126 -43 -213 -26 -119 -41 -166 -60 -192 -16 -20
-26 -47 -26 -66 0 -18 -8 -42 -19 -53 -18 -20 -141 -369 -141 -402 0 -9 7 -14
17 -12 22 4 125 241 124 286 0 31 7 48 58 134 19 31 59 68 75 68 6 0 -6 -40
-34 -112 -22 -58 -20 -81 4 -72 7 3 57 99 112 213 74 156 100 202 102 182 1
-14 -1 -90 -6 -168 -8 -132 -10 -146 -41 -207 -19 -36 -44 -72 -56 -80 -16
-11 -33 -46 -55 -113 -18 -54 -41 -110 -51 -125 -35 -49 -13 -81 26 -38 10 11
20 19 22 17 2 -2 -13 -38 -32 -80 -37 -81 -46 -147 -20 -147 9 0 20 11 25 25
5 14 12 25 15 25 9 0 -6 -104 -16 -114 -19 -21 -3 -106 20 -106 4 0 24 24 44
54 26 39 43 55 65 59 26 5 37 19 71 84 44 83 147 226 241 333 50 58 143 173
223 277 15 20 27 34 27 30 0 -13 -75 -198 -105 -257 -18 -36 -38 -83 -45 -105
-7 -22 -33 -69 -59 -105 -109 -156 -210 -313 -205 -321 13 -21 34 -4 87 69
104 142 100 140 71 33 -26 -102 -66 -188 -119 -263 -39 -53 -78 -128 -72 -134
5 -6 93 95 131 151 l28 40 -4 -50 c-3 -35 -15 -67 -40 -105 -30 -48 -58 -144
-58 -199 0 -26 32 -8 67 39 20 27 38 48 39 47 4 -4 -26 -189 -32 -199 -3 -4
-11 -49 -19 -99 -14 -98 -30 -128 -157 -297 -88 -117 -50 -104 79 26 47 48 82
78 79 67 -4 -11 -10 -53 -13 -92 -5 -62 -4 -73 10 -73 8 0 25 12 37 27 l22 28
-7 -75 c-4 -41 -13 -117 -21 -168 -12 -84 -17 -98 -49 -133 -37 -42 -48 -72
-17 -48 42 32 75 66 88 92 8 15 18 27 22 27 4 0 4 -51 0 -112 -8 -116 -83
-445 -128 -557 -20 -50 -20 -51 -1 -41 11 5 36 30 57 55 20 25 38 44 40 42 2
-2 -13 -65 -33 -140 -36 -136 -37 -138 -77 -165 -34 -23 -42 -34 -44 -64 -2
-20 -10 -42 -18 -48 -8 -7 -14 -26 -14 -42 0 -16 -4 -38 -10 -48 -7 -13 -5
-24 10 -43 25 -32 25 -44 0 -57 -27 -14 -25 -34 5 -74 27 -36 31 -56 14 -73
-7 -7 -7 -23 1 -53 14 -51 7 -60 -23 -32 -13 12 -29 22 -37 22 -22 0 -50 -32
-50 -57 0 -22 43 -73 61 -73 5 0 9 -4 9 -9 0 -4 -11 -6 -25 -3 -16 3 -34 -4
-54 -20 -19 -17 -47 -27 -81 -31 -29 -4 -64 -14 -77 -23 -47 -30 -16 -113 60
-163 20 -13 35 -26 33 -29 -3 -2 -39 -8 -81 -13 -43 -4 -83 -13 -91 -20 -19
-15 -18 -39 1 -39 26 0 17 -37 -12 -48 -17 -6 -205 -12 -485 -15 -395 -5 -458
-3 -458 9 0 8 11 19 25 24 14 5 30 21 35 34 5 14 18 30 30 36 11 6 20 18 20
28 0 9 7 36 15 60 15 41 14 44 -14 101 -17 32 -41 72 -55 88 -47 56 -48 74 -7
153 13 25 72 47 143 53 104 9 121 20 133 92 5 33 9 132 8 220 0 142 -3 169
-26 245 -40 133 -50 155 -90 199 -21 24 -37 51 -37 65 0 14 -5 28 -11 31 -5 4
-15 17 -20 28 -5 12 -17 34 -27 48 -9 14 -29 43 -43 65 -52 77 -105 120 -185
148 -36 12 -124 88 -124 106 0 4 -9 14 -20 21 -18 13 -21 28 -24 144 -2 72 0
166 5 210 5 44 14 131 19 194 6 63 16 121 23 129 8 11 12 66 12 189 0 151 2
172 14 154 24 -36 44 -27 39 19 -2 22 -1 40 2 40 4 0 19 -13 34 -29 27 -28 28
-33 28 -134 0 -57 4 -110 8 -118 27 -42 103 122 156 336 59 241 62 519 7 665
-28 73 -28 72 -43 195 -6 50 -18 104 -25 120 -16 34 -20 68 -35 250 -5 72 -14
149 -20 172 -6 24 -13 84 -16 135 -8 117 7 110 37 -17 11 -50 47 -198 79 -330
67 -272 79 -344 89 -500 5 -101 8 -110 26 -110 18 0 20 7 20 55 -1 83 -24 333
-40 435 -8 50 -19 131 -26 180 -6 50 -15 104 -20 120 -4 17 -13 75 -19 130 -6
55 -18 123 -25 150 -27 99 -74 382 -80 480 -5 99 -5 100 10 55 62 -187 138
-523 180 -797 19 -125 42 -276 51 -334 14 -84 15 -112 6 -139 -21 -60 -9 -78
30 -43 16 15 18 35 18 217 0 122 -6 238 -14 296 -8 52 -19 158 -26 235 -6 77
-15 169 -20 205 -9 64 -20 162 -40 370 -6 58 -14 114 -17 125 -3 13 -2 17 5
10 5 -5 22 -48 36 -94z m-1179 -3882 c28 -5 83 -30 125 -54 41 -25 82 -45 91
-45 26 0 276 -128 282 -145 3 -7 31 -26 61 -41 54 -26 123 -85 84 -71 -23 8
-23 -8 0 -25 23 -17 62 -68 62 -81 0 -6 -10 -1 -23 11 -32 30 -50 28 -65 -8
-15 -33 -11 -44 30 -78 16 -13 39 -43 52 -66 26 -43 49 -116 38 -116 -4 0 -25
25 -46 55 -71 99 -105 111 -51 18 31 -51 21 -56 -22 -10 -17 17 -56 57 -87 87
-46 45 -58 52 -66 40 -13 -20 -12 -32 4 -55 7 -11 16 -47 19 -81 8 -77 44
-155 103 -224 l47 -55 -76 -3 c-69 -3 -80 0 -118 25 l-43 28 -312 4 -312 3
-53 -36 c-53 -35 -56 -36 -152 -36 l-99 0 66 71 c65 71 66 72 66 128 0 45 -5
64 -25 91 -34 46 -41 92 -21 143 20 52 20 97 2 142 -19 45 -42 55 -124 55 -56
0 -72 4 -87 20 -25 27 -42 25 -59 -7 l-14 -28 -6 25 c-32 143 21 218 179 250
33 7 74 22 90 34 63 47 301 65 460 35z m-2355 -361 c83 -43 113 -148 68 -238
-43 -85 -129 -113 -208 -69 -97 55 -113 207 -28 286 50 47 103 54 168 21z
m4983 8 c70 -30 115 -112 103 -190 -14 -83 -80 -146 -156 -146 -137 0 -206
179 -113 291 46 55 106 71 166 45z m-2223 -606 l34 -30 225 0 225 0 38 -37
c36 -35 38 -41 38 -98 0 -49 -4 -66 -20 -80 -16 -14 -20 -32 -22 -84 0 -36 -3
-51 -5 -33 -5 39 -30 43 -35 5 -6 -51 -21 -24 -20 36 0 47 5 67 27 100 24 35
26 45 17 66 -6 14 -16 25 -21 25 -6 0 -39 -38 -75 -84 -60 -76 -66 -88 -66
-130 0 -25 -4 -46 -10 -46 -5 0 -10 25 -10 56 0 53 3 59 66 140 36 46 64 90
61 98 -5 13 -98 26 -192 26 l-50 -1 -68 -89 -68 -90 -94 0 c-91 0 -94 1 -118
30 l-26 30 -153 0 -154 0 -29 -30 c-28 -29 -32 -30 -120 -30 l-90 0 -69 90
-69 91 -116 -7 c-64 -3 -119 -8 -123 -11 -15 -8 -8 -20 50 -94 33 -41 64 -84
70 -96 17 -30 16 -116 0 -110 -8 2 -12 19 -11 42 3 34 -6 50 -64 127 -38 48
-72 87 -77 85 -5 -2 -15 -12 -23 -23 -11 -18 -9 -26 17 -67 25 -39 30 -58 30
-107 0 -33 -4 -60 -10 -60 -5 0 -10 14 -10 30 0 20 -5 30 -15 30 -10 0 -15
-10 -15 -30 0 -16 -4 -30 -10 -30 -6 0 -10 29 -10 68 0 56 -4 72 -20 87 -15
13 -20 31 -20 67 0 42 5 56 36 94 l36 44 228 0 227 0 38 30 38 30 286 0 286
-1 35 -29z m-1903 -432 c4 -7 10 -141 13 -298 l5 -285 195 0 195 0 5 295 5
295 330 0 330 0 205 -289 205 -288 3 278 c1 184 6 282 13 291 15 17 170 18
187 1 9 -9 12 -109 12 -387 l0 -375 -32 -33 -32 -33 -126 0 c-108 0 -129 3
-142 18 -9 9 -91 125 -182 257 -92 132 -171 242 -176 243 -6 2 -10 -90 -10
-247 0 -288 6 -271 -101 -271 -102 0 -99 -8 -99 264 0 231 0 231 -25 261 l-24
30 -1 -277 c0 -179 -4 -278 -10 -278 -6 0 -10 104 -10 293 0 160 -4 298 -9
306 -26 41 -31 -7 -31 -300 0 -193 -4 -299 -10 -299 -6 0 -10 99 -10 278 l-1
277 -24 -28 -25 -28 0 -231 c0 -201 -2 -234 -17 -250 -15 -17 -40 -18 -383
-18 l-367 0 -27 25 -26 24 -1 348 c-2 388 -1 413 13 431 7 8 39 12 94 12 55 0
86 -4 91 -12z m2494 2 c17 -10 19 -22 19 -115 l0 -105 -212 -2 -213 -3 213
-155 212 -154 0 -122 0 -122 -31 -26 -31 -26 -307 0 c-225 0 -310 3 -319 12
-8 8 -12 52 -12 130 l0 119 195 -3 c107 -2 195 0 195 3 0 4 -88 72 -195 153
l-195 146 0 117 c0 106 2 119 22 140 l21 23 309 0 c194 0 317 -4 329 -10z
m824 -6 c13 -13 15 -36 13 -123 l-3 -106 -255 -5 -255 -5 0 -165 0 -165 255
-5 255 -5 3 -106 c2 -87 0 -110 -13 -123 -14 -14 -58 -16 -359 -16 -253 0
-345 3 -354 12 -17 17 -17 799 0 816 9 9 101 12 354 12 301 0 345 -2 359 -16z
m-3121 -862 c3 -5 -17 -25 -44 -45 -28 -21 -50 -33 -50 -28 0 5 5 13 10 16 20
13 10 35 -16 35 -22 0 -25 2 -14 15 13 16 105 22 114 7z m456 -117 c0 -82 4
-132 12 -145 10 -15 10 -22 0 -32 -6 -6 -12 -22 -12 -35 0 -15 -7 -24 -24 -29
-23 -5 -46 -55 -46 -99 0 -14 -3 -15 -15 -5 -11 9 -20 8 -45 -10 -16 -12 -30
-26 -30 -32 0 -16 -124 -130 -128 -118 -7 19 -27 9 -75 -37 -42 -41 -48 -44
-42 -23 4 14 11 29 16 34 5 6 9 20 9 32 0 23 68 120 114 163 28 26 35 71 12
71 -8 0 -17 -11 -20 -25 -5 -18 -13 -25 -29 -25 -28 0 -120 -54 -199 -116
l-58 -45 0 27 c0 33 52 83 162 157 83 56 110 89 90 109 -10 10 -31 3 -96 -30
-46 -23 -97 -42 -113 -41 l-28 0 24 10 c70 28 151 128 136 166 -5 13 -12 10
-42 -18 l-36 -34 6 40 c7 43 83 163 125 195 22 18 40 20 178 20 l154 0 0 -125z
m60 -5 c0 -80 4 -130 10 -130 6 0 10 50 10 130 0 109 2 130 15 130 13 0 15
-21 15 -132 0 -121 2 -134 22 -155 20 -21 20 -24 5 -41 -21 -23 -13 -33 22
-26 22 4 71 -31 336 -241 171 -136 331 -267 357 -292 25 -25 51 -42 57 -39 22
14 10 49 -29 92 l-40 44 0 92 0 93 -145 115 c-80 63 -156 118 -168 122 -12 3
-44 6 -70 7 -44 1 -55 7 -132 71 -95 79 -100 91 -93 225 l4 70 2 -81 c1 -58 6
-85 17 -94 8 -7 15 -22 15 -34 0 -15 23 -40 70 -79 68 -55 72 -57 129 -57 66
0 51 9 299 -185 l102 -80 0 -94 c0 -83 3 -97 22 -118 27 -29 45 -29 75 -1 21
20 23 30 23 117 l0 96 102 80 c248 194 233 185 299 185 57 0 61 2 129 57 47
39 70 64 70 79 0 12 7 27 15 34 11 9 16 36 17 94 l2 81 4 -70 c7 -134 2 -146
-93 -225 -77 -64 -88 -70 -132 -71 -26 -1 -58 -4 -70 -7 -12 -4 -88 -59 -168
-122 l-145 -115 0 -93 0 -92 -40 -44 c-39 -43 -51 -78 -29 -92 6 -3 32 14 57
39 26 25 187 156 357 292 266 211 314 246 336 241 35 -7 43 3 22 26 -15 17
-15 20 5 41 20 21 22 34 22 155 0 111 2 132 15 132 13 0 15 -21 15 -130 0 -80
4 -130 10 -130 6 0 10 50 10 130 0 80 4 130 10 130 6 0 10 -53 10 -138 0 -126
-2 -141 -20 -157 -11 -10 -20 -25 -20 -35 0 -28 -101 -113 -522 -439 -244
-188 -305 -243 -313 -281 -4 -17 -10 -30 -15 -30 -5 0 -11 13 -15 30 -8 38
-69 93 -313 281 -421 326 -522 411 -522 439 0 10 -9 25 -20 35 -18 16 -20 31
-20 157 0 85 4 138 10 138 6 0 10 -50 10 -130z m2157 88 c57 -59 103 -136 103
-172 l0 -30 -28 27 c-36 34 -42 34 -42 -2 0 -37 65 -112 122 -140 l43 -21 -32
0 c-18 0 -65 17 -108 40 -91 48 -108 50 -103 13 2 -18 17 -37 45 -58 23 -16
66 -47 95 -68 87 -62 100 -75 108 -112 4 -19 6 -35 4 -35 -2 0 -32 23 -66 50
-75 60 -160 110 -188 110 -13 0 -24 10 -30 25 -11 28 -28 33 -37 9 -3 -9 6
-28 24 -47 63 -68 113 -140 119 -173 3 -19 10 -37 15 -40 5 -3 9 -15 9 -27 0
-20 -4 -18 -33 14 -48 54 -64 64 -81 50 -11 -9 -20 -4 -44 27 -17 21 -42 44
-56 52 -14 7 -26 19 -26 25 0 14 -52 65 -67 65 -6 0 -13 -5 -15 -11 -2 -6 -10
12 -17 40 -10 40 -20 55 -42 67 -20 10 -29 22 -29 39 0 13 -5 27 -10 30 -7 4
-7 12 0 25 5 10 10 72 10 138 0 65 3 122 7 125 3 4 74 7 158 7 l151 0 41 -42z
m223 27 c10 -13 9 -15 -12 -15 -34 0 -41 -10 -21 -32 28 -31 7 -31 -30 1 -19
17 -40 31 -46 31 -6 0 -11 7 -11 15 0 11 13 15 54 15 35 0 58 -5 66 -15z
m-3855 -302 c286 -223 483 -320 917 -448 94 -28 148 -64 148 -98 0 -11 -12
-50 -26 -85 -23 -59 -25 -75 -23 -181 4 -111 3 -116 -19 -127 -12 -6 -25 -14
-29 -17 -17 -18 322 -144 532 -197 280 -71 523 -100 845 -100 322 0 565 29
845 100 210 53 549 179 532 197 -4 3 -17 11 -29 17 -22 11 -23 16 -19 127 2
106 0 122 -23 181 -14 35 -26 74 -26 85 0 34 54 70 148 98 452 134 641 229
967 488 66 52 121 94 122 93 1 -1 -13 -40 -32 -86 -32 -81 -37 -87 -90 -118
-65 -39 -170 -134 -209 -190 -31 -45 -40 -117 -16 -132 26 -17 94 -11 135 11
22 12 64 39 93 61 66 49 56 27 -33 -69 -101 -111 -324 -248 -489 -303 -56 -18
-79 -75 -74 -184 2 -65 9 -93 31 -135 50 -98 43 -108 -153 -210 -399 -206
-848 -336 -1340 -386 -198 -21 -607 -16 -785 9 -479 68 -876 190 -1244 382
-186 97 -194 108 -143 205 21 42 28 70 30 135 5 109 -18 166 -74 184 -165 55
-388 192 -489 303 -89 96 -99 118 -33 69 29 -22 71 -49 93 -61 41 -22 109 -28
135 -11 24 15 15 87 -16 132 -39 56 -144 151 -209 190 -53 31 -58 37 -90 118
-19 47 -35 87 -35 89 0 2 19 -12 43 -31 23 -19 83 -66 132 -105z m1550 -124
c19 -17 35 -36 35 -43 0 -7 -16 -28 -36 -47 l-36 -34 7 40 7 40 -42 -43 -41
-42 7 37 c8 50 40 123 53 123 6 0 26 -14 46 -31z m1674 -18 c11 -27 21 -62 21
-78 l0 -28 -31 38 c-35 42 -57 38 -39 -7 14 -38 -5 -30 -44 18 l-30 37 39 34
c22 19 45 34 51 35 6 0 21 -22 33 -49z m-1494 -132 c50 -41 193 -155 319 -253
218 -171 230 -183 257 -240 16 -34 29 -67 29 -73 0 -7 5 -13 10 -13 6 0 10 6
10 13 0 6 13 39 29 73 27 58 39 69 302 276 151 119 301 239 334 266 33 28 63
48 67 46 4 -3 33 -39 65 -82 106 -140 185 -320 218 -495 24 -126 23 -133 -32
-161 -64 -32 -221 -81 -313 -97 -110 -20 -355 -17 -460 5 -328 68 -613 252
-800 514 -62 87 -143 241 -156 297 -7 29 -6 29 12 14 10 -9 60 -49 109 -90z
m-15 -225 c113 -168 324 -348 516 -439 337 -160 747 -173 1088 -34 39 16 73
29 75 29 7 0 -8 -113 -16 -121 -14 -14 -261 -78 -398 -104 -228 -42 -334 -50
-654 -50 l-304 0 -54 60 c-77 86 -185 229 -259 348 -60 94 -214 394 -228 443
-5 15 6 38 40 84 l47 64 47 -100 c26 -55 71 -136 100 -180z m-360 96 c3 -3 1
-14 -4 -25 -9 -17 -15 -19 -31 -10 -22 11 -30 59 -9 51 8 -3 17 0 21 6 5 9 8
8 11 -2 3 -8 8 -17 12 -20z m2037 6 c-3 -8 0 -19 6 -25 8 -8 5 -11 -11 -11
-12 0 -22 -6 -23 -12 0 -7 -4 -3 -9 10 -5 12 -15 22 -22 22 -19 0 21 26 44 27
13 1 18 -3 15 -11z m-1861 -171 c98 -206 216 -388 390 -602 20 -25 23 -33 11
-33 -73 0 -509 93 -599 128 -35 14 -42 58 -29 193 16 165 44 270 109 413 33
72 37 76 46 55 5 -13 37 -82 72 -154z m-256 3 c0 -5 8 -8 18 -8 16 -1 16 -2
-2 -15 -10 -7 -15 -18 -11 -24 3 -6 1 -11 -4 -11 -6 0 -11 5 -11 11 0 6 -9 8
-22 3 -20 -6 -21 -5 -9 10 9 11 10 20 3 29 -8 9 -4 12 14 12 13 0 24 -3 24 -7z
m2187 -20 c0 -15 -4 -25 -9 -22 -5 3 -15 0 -23 -6 -12 -10 -15 -9 -15 3 0 8
-5 17 -12 19 -19 7 13 36 38 34 15 -1 21 -8 21 -28z m-2217 -196 c-5 -2 -10
-9 -10 -15 0 -7 -10 -12 -22 -12 -17 0 -23 6 -23 23 0 12 6 22 13 22 6 0 12 4
12 10 0 5 9 2 20 -8 11 -9 16 -18 10 -20z m2263 18 c8 0 8 -3 -1 -12 -9 -9 -9
-15 1 -27 10 -12 9 -14 -7 -8 -10 4 -25 2 -34 -5 -13 -11 -15 -10 -9 4 3 10 2
20 -4 24 -15 9 11 36 28 29 8 -3 20 -5 26 -5z m-1789 -839 c187 -33 406 -53
606 -55 l185 -2 117 -57 c65 -32 176 -77 248 -100 l130 -43 -62 -46 c-196
-143 -417 -208 -658 -195 -252 15 -467 113 -651 296 -74 74 -189 227 -189 251
0 4 35 -1 78 -11 44 -10 132 -27 196 -38z m1512 22 c-21 -41 -128 -183 -159
-212 -22 -20 -32 -22 -64 -16 -66 12 -241 74 -331 118 l-87 41 40 3 c157 12
587 82 604 99 12 12 11 -8 -3 -33z"/>
<path d="M7510 7022 c0 -25 46 -65 100 -89 25 -11 86 -58 135 -103 50 -46 105
-94 123 -108 18 -13 35 -35 38 -49 8 -29 111 -123 136 -123 46 0 8 47 -197
241 -145 138 -230 211 -262 226 -58 28 -73 28 -73 5z"/>
<path d="M7805 6430 c-7 -12 1 -27 40 -72 32 -35 74 -68 87 -68 18 0 5 26 -38
77 -50 58 -79 79 -89 63z"/>
<path d="M7870 5718 c0 -17 40 -52 49 -42 3 2 -7 17 -22 32 -21 21 -27 23 -27
10z"/>
<path d="M7947 5634 c-3 -3 8 -19 25 -36 24 -23 37 -28 66 -26 43 4 57 28 15
28 -15 0 -41 9 -58 20 -32 21 -38 23 -48 14z"/>
<path d="M8107 5514 c-22 -24 -34 -45 -28 -49 25 -15 97 65 75 84 -5 4 -26
-11 -47 -35z"/>
<path d="M11617 7017 c-32 -15 -117 -88 -262 -226 -206 -196 -243 -241 -196
-241 26 0 127 93 135 124 3 13 20 35 38 48 18 14 74 62 123 108 50 45 110 92
135 103 54 24 100 64 100 89 0 23 -15 23 -73 -5z"/>
<path d="M11311 6373 c-45 -52 -62 -83 -45 -83 26 0 134 106 134 131 0 26 -44
3 -89 -48z"/>
<path d="M11301 5706 c-14 -14 -22 -28 -19 -31 9 -9 51 31 47 44 -3 8 -13 3
-28 -13z"/>
<path d="M11205 5620 c-16 -11 -43 -20 -58 -20 -42 0 -28 -24 15 -28 29 -2 42
3 66 26 17 17 28 33 25 36 -10 9 -16 7 -48 -14z"/>
<path d="M11044 5548 c-9 -14 15 -55 44 -74 42 -27 43 -1 2 43 -23 24 -42 37
-46 31z"/>
<path d="M9027 6441 c-2 -10 -1 -25 4 -32 12 -21 33 4 24 30 -8 26 -21 27 -28
2z"/>
<path d="M9190 6436 c0 -22 40 -66 60 -66 20 0 60 44 60 66 0 20 -8 17 -33
-12 -24 -28 -52 -25 -62 7 -7 22 -25 26 -25 5z"/>
<path d="M9265 5630 c-14 -16 -16 -23 -7 -32 9 -9 18 -6 37 12 24 23 25 40 1
40 -7 0 -21 -9 -31 -20z"/>
<path d="M9875 5641 c-9 -15 55 -55 67 -43 8 8 4 17 -13 31 -26 22 -45 26 -54
12z"/>
<path d="M9301 5605 c-36 -33 -42 -35 -110 -35 l-71 0 51 -70 51 -70 72 0 c67
0 74 2 101 30 l29 30 176 0 176 0 23 -30 c22 -30 24 -31 99 -28 l77 3 48 65
49 65 -68 3 c-61 3 -73 7 -110 38 l-42 34 -256 0 -256 0 -39 -35z"/>
<path d="M8766 5561 c-16 -16 -27 -34 -24 -41 2 -6 21 7 43 30 24 25 33 40 24
40 -8 0 -28 -13 -43 -29z"/>
<path d="M10412 5550 c18 -22 36 -40 41 -40 16 0 5 28 -21 53 -43 41 -57 32
-20 -13z"/>
<path d="M8714 5188 c-9 -30 -14 -33 -57 -38 l-47 -5 34 -28 35 -27 -14 -41
c-22 -61 -19 -64 25 -29 l40 32 40 -32 c44 -34 48 -29 24 28 l-15 37 38 32 37
32 -49 3 c-46 3 -50 5 -59 36 -5 17 -12 32 -16 32 -4 0 -11 -15 -16 -32z"/>
<path d="M8602 4134 c-5 -9 -25 -25 -43 -33 -25 -12 -34 -23 -34 -40 0 -33 22
-38 36 -9 5 13 20 28 31 33 30 14 46 41 31 56 -8 8 -13 6 -21 -7z"/>
<path d="M8840 3983 c0 -9 118 -104 515 -417 156 -123 225 -166 135 -84 -54
49 -627 502 -640 506 -6 2 -10 0 -10 -5z"/>
<path d="M10060 3764 c-157 -124 -310 -247 -340 -274 -103 -91 -36 -50 125 76
503 396 537 425 508 424 -5 0 -136 -102 -293 -226z"/>
<path d="M10584 4147 c-9 -26 12 -67 35 -67 12 0 21 -9 25 -25 7 -26 31 -34
39 -12 8 24 -5 44 -36 58 -18 8 -37 25 -44 39 -11 21 -13 22 -19 7z"/>
<path d="M7120 4125 c0 -2 12 -28 26 -58 19 -38 37 -59 68 -76 162 -93 271
-232 251 -322 -12 -55 -84 -65 -169 -23 l-51 25 45 -46 c76 -78 201 -153 383
-231 91 -39 123 -43 132 -14 9 30 148 93 202 92 41 0 42 1 32 21 -6 12 -25 37
-43 56 -17 18 -26 32 -21 29 6 -2 28 -12 49 -22 22 -10 56 -20 75 -23 60 -8
69 -16 26 -23 l-40 -7 46 -2 c26 0 53 5 65 13 32 24 6 46 -84 72 -115 33 -326
116 -457 179 -127 61 -274 158 -427 279 -60 47 -108 84 -108 81z"/>
<path d="M11970 4043 c-149 -119 -298 -217 -425 -278 -131 -63 -342 -146 -457
-179 -90 -26 -116 -48 -84 -72 12 -8 39 -13 65 -13 l46 2 -40 7 c-43 7 -34 15
26 23 19 3 53 13 75 23 21 10 44 20 49 22 6 3 -4 -11 -21 -29 -18 -19 -37 -44
-43 -56 -10 -20 -9 -21 32 -21 56 1 189 -61 205 -96 13 -29 23 -27 132 19 171
72 305 153 380 230 l45 46 -51 -25 c-54 -27 -112 -33 -144 -16 -46 25 -32 120
29 198 39 49 183 165 218 176 16 5 80 114 71 121 -2 1 -50 -36 -108 -82z"/>
<path d="M8264 3525 c21 -16 32 -13 21 4 -3 6 -14 11 -23 11 -15 -1 -15 -2 2
-15z"/>
<path d="M10915 3529 c-11 -17 0 -20 21 -4 17 13 17 14 2 15 -9 0 -20 -5 -23
-11z"/>
<path d="M8230 3479 c-25 -4 -69 -8 -99 -8 -44 -1 -51 -3 -42 -15 9 -11 4 -15
-26 -20 -76 -14 -174 -48 -180 -62 -12 -32 17 -44 106 -45 85 -1 85 -1 42 -13
-73 -19 -75 -37 -11 -102 67 -68 137 -106 188 -102 l37 3 6 130 c4 100 10 142
27 181 19 47 20 66 3 63 -3 -1 -26 -5 -51 -10z"/>
<path d="M10908 3484 c-4 -3 3 -29 14 -58 17 -39 23 -81 27 -181 l6 -130 37
-3 c51 -4 121 34 188 102 64 65 62 83 -11 102 -43 12 -43 12 42 13 89 1 118
13 106 45 -6 14 -104 48 -180 62 -28 5 -35 9 -27 19 8 9 -10 13 -79 18 -48 4
-95 9 -103 12 -8 3 -17 3 -20 -1z"/>
<path d="M7815 3177 c0 -80 -4 -99 -28 -148 -15 -31 -27 -61 -27 -67 0 -34
266 -172 510 -265 855 -327 1804 -328 2658 -1 246 94 512 232 512 266 0 6 -12
36 -27 67 -24 49 -28 68 -28 148 0 51 -1 93 -3 93 -1 0 -57 -33 -125 -74 -209
-126 -377 -202 -615 -280 -375 -122 -662 -162 -1124 -153 -390 7 -629 45 -958
152 -240 79 -407 155 -617 281 -68 41 -124 74 -125 74 -2 0 -3 -42 -3 -93z
m65 -121 c-24 -57 -25 -82 -4 -90 28 -11 33 -7 65 55 21 42 34 58 41 51 7 -7
1 -27 -18 -64 -23 -42 -35 -54 -57 -56 -32 -4 -77 21 -77 42 0 29 51 129 61
119 6 -6 3 -26 -11 -57z m3460 14 c21 -21 34 -59 28 -86 -3 -17 -61 -64 -79
-64 -9 0 -69 112 -69 128 0 11 59 41 83 41 9 1 26 -8 37 -19z m-3274 -126 c9
-34 20 -30 38 16 9 22 20 40 25 40 5 0 -5 -31 -22 -70 -18 -38 -34 -70 -38
-70 -3 0 -15 32 -28 70 -12 39 -24 70 -26 70 -2 0 -14 -21 -26 -47 -12 -27
-23 -43 -26 -36 -2 6 10 40 28 75 l32 63 19 -44 c10 -24 21 -54 24 -67z m3155
30 c17 -36 28 -68 26 -71 -3 -2 -33 7 -68 21 -34 14 -64 24 -66 23 -2 -2 4
-21 12 -41 30 -71 9 -59 -22 13 -37 82 -34 84 53 46 31 -14 58 -25 60 -25 2 0
-6 21 -16 46 -22 50 -23 54 -14 54 3 0 19 -30 35 -66z m-3031 2 c0 -16 -61
-136 -70 -136 -15 0 -13 8 16 78 15 34 33 62 41 62 7 0 13 -2 13 -4z m120 -53
c3 -3 -5 -4 -17 -1 -19 5 -25 -3 -49 -57 -17 -42 -31 -62 -40 -58 -10 3 -7 19
14 65 24 56 24 61 9 73 -31 23 -17 24 30 4 26 -11 50 -23 53 -26z m2790 -85
c0 -14 -23 -9 -42 9 -26 24 -67 4 -69 -34 -1 -16 -5 6 -9 47 -11 109 1 116 67
43 29 -32 52 -61 53 -65z m-2721 61 c17 -6 31 -15 31 -20 0 -5 -10 -4 -22 2
-18 10 -24 8 -35 -7 -18 -24 -17 -29 10 -43 21 -11 21 -11 -4 -6 -23 4 -28 1
-33 -21 -8 -30 -8 -30 24 -43 17 -7 19 -10 8 -10 -9 -1 -29 4 -43 11 -20 9
-25 17 -21 34 8 29 44 114 49 114 2 0 18 -5 36 -11z m2548 -53 c18 -35 29 -67
26 -70 -14 -14 -25 -4 -45 42 l-21 47 -11 -63 -11 -63 -40 40 c-21 23 -42 41
-46 41 -4 0 -1 -21 7 -47 8 -25 12 -49 9 -51 -8 -8 -11 -1 -28 68 -21 86 -9
96 47 41 l43 -42 7 60 c4 38 12 61 19 61 7 0 27 -29 44 -64z m-2430 7 c54 -25
63 -78 22 -122 -33 -35 -138 -19 -123 18 3 9 15 40 26 69 12 28 25 52 30 52 6
0 26 -7 45 -17z m2234 -50 c26 -62 35 -103 21 -103 -6 0 -19 23 -29 50 -10 28
-21 50 -24 50 -4 0 -10 -28 -14 -62 l-7 -63 -45 50 -45 49 6 -59 5 -60 -13 50
c-18 65 -19 105 -3 105 6 0 28 -19 49 -42 l36 -43 7 40 c16 103 25 109 56 38z
m-2035 -65 c40 -66 42 -66 60 7 4 17 9 23 10 15 6 -23 -20 -123 -31 -123 -5 0
-26 26 -45 58 l-34 59 -17 -55 c-19 -61 -25 -42 -8 29 14 62 17 72 23 72 2 0
21 -28 42 -62z m1834 42 c23 -12 44 -72 35 -100 -9 -27 -61 -53 -92 -45 -15 3
-30 18 -39 40 -20 49 -18 71 12 94 29 23 55 26 84 11z m-1646 -91 c9 -91 8
-99 -9 -93 -8 4 -15 17 -15 30 0 35 -48 46 -68 16 -8 -12 -18 -22 -23 -22 -5
0 10 29 33 65 56 84 73 85 82 4z m1496 51 c0 -5 -11 -10 -24 -10 -40 0 -52
-25 -35 -73 13 -39 17 -42 51 -41 44 1 41 -11 -4 -21 -27 -6 -36 -3 -55 19
-30 35 -31 88 -1 116 23 21 68 28 68 10z m-1406 -6 c47 -7 65 -21 24 -20 -21
1 -24 -6 -32 -61 -7 -43 -14 -63 -24 -63 -11 0 -12 10 -7 48 12 85 11 85 -15
93 -33 9 -5 11 54 3z m92 -31 c-3 -10 -8 -44 -12 -75 -4 -42 -11 -58 -21 -58
-12 0 -14 8 -9 33 3 17 8 51 12 75 4 27 12 42 21 42 9 0 12 -7 9 -17z m1114 7
c0 -5 -9 -10 -19 -10 -25 0 -34 -14 -26 -40 5 -16 12 -19 32 -14 18 5 24 3 19
-5 -4 -6 -16 -11 -28 -11 -14 0 -18 -5 -14 -16 3 -9 6 -21 6 -28 0 -8 11 -11
33 -8 24 3 29 2 21 -8 -6 -6 -27 -10 -45 -8 -33 3 -34 4 -45 71 -12 73 -12 72
36 80 14 2 26 5 28 6 1 0 2 -3 2 -9z m-970 -30 c30 -30 22 -98 -14 -122 -20
-13 -69 -8 -88 9 -23 21 -24 89 -1 115 22 24 77 24 103 -2z m95 -53 c41 -52
55 -49 55 11 0 17 3 32 8 32 8 0 0 -135 -9 -144 -3 -4 -25 18 -49 49 -23 30
-46 55 -51 55 -5 0 -9 -20 -9 -45 0 -25 -3 -45 -7 -45 -8 0 -6 115 3 139 5 16
4 17 59 -52z m765 52 c0 -7 -9 -9 -22 -6 -34 9 -58 -9 -58 -46 0 -50 26 -80
62 -73 18 3 27 2 23 -4 -3 -6 -24 -10 -45 -10 -30 0 -42 5 -51 21 -17 32 -13
88 7 110 19 21 84 27 84 8z m-590 -19 c0 -5 -13 -10 -30 -10 -41 0 -39 -23 5
-49 22 -12 35 -28 35 -40 0 -29 -43 -55 -76 -47 -34 9 -22 21 19 21 41 0 42
23 2 45 -36 20 -45 58 -19 77 21 15 64 17 64 3z m319 -9 c24 -24 18 -55 -15
-70 -13 -6 -24 -7 -24 -2 0 5 7 12 16 15 21 8 14 50 -8 54 -16 3 -18 -5 -18
-68 0 -53 -3 -71 -12 -68 -13 5 -24 118 -14 144 8 20 53 17 75 -5z m125 -46
c14 -36 26 -70 26 -75 0 -20 -21 -9 -30 15 -7 19 -17 25 -40 25 -23 0 -31 -5
-36 -25 -3 -14 -10 -25 -14 -25 -7 0 15 87 34 137 12 30 35 10 60 -52z m-234
45 c0 -6 -12 -9 -27 -8 -34 4 -45 -27 -14 -37 47 -15 63 -51 35 -79 -18 -18
-69 -21 -79 -5 -5 7 4 8 28 4 26 -5 36 -3 40 10 5 11 -3 22 -27 36 -42 25 -51
46 -30 70 18 20 74 26 74 9z"/>
<path d="M11260 3060 c-12 -8 -11 -17 13 -65 24 -49 29 -54 46 -45 30 15 33
27 21 65 -15 47 -48 65 -80 45z"/>
<path d="M10990 2892 c0 -34 5 -38 30 -22 13 8 12 13 -7 32 l-23 22 0 -32z"/>
<path d="M8442 2793 c-22 -60 -19 -73 21 -73 19 0 57 54 57 82 0 15 -35 48
-51 48 -3 0 -16 -26 -27 -57z"/>
<path d="M10457 2763 c-14 -13 -7 -71 11 -93 14 -18 25 -22 45 -16 22 5 27 12
27 39 0 18 -7 43 -16 55 -14 21 -53 30 -67 15z"/>
<path d="M8832 2709 c-17 -27 -15 -39 8 -39 15 0 20 7 20 24 0 32 -13 39 -28
15z"/>
<path d="M9134 2682 c-20 -13 -25 -76 -8 -100 32 -46 74 -21 74 45 0 32 -5 45
-19 53 -23 12 -32 12 -47 2z"/>
<path d="M9867 2626 c-12 -31 -8 -46 13 -46 23 0 26 18 7 44 -13 18 -14 18
-20 2z"/>
</g>
</svg>
