<?xml version="1.0" standalone="no"?>
<!DOCTYPE svg PUBLIC "-//W3C//DTD SVG 20010904//EN"
 "http://www.w3.org/TR/2001/REC-SVG-20010904/DTD/svg10.dtd">
<svg version="1.0" xmlns="http://www.w3.org/2000/svg"
 width="236.000000pt" height="236.000000pt" viewBox="0 0 236.000000 236.000000"
 preserveAspectRatio="xMidYMid meet">

<g transform="translate(0.000000,236.000000) scale(0.100000,-0.100000)"
fill="#000000" stroke="none">
<path d="M0 1180 l0 -1180 1180 0 1180 0 0 1180 0 1180 -1180 0 -1180 0 0
-1180z m518 1104 c7 -21 16 -74 19 -116 l6 -78 97 6 c99 7 150 1 150 -16 0 -6
-36 -50 -79 -99 -92 -102 -142 -131 -225 -131 -76 0 -117 20 -146 71 -28 50
-32 143 -9 197 19 43 151 212 164 208 6 -1 16 -20 23 -42z m1418 -33 c34 -42
72 -97 85 -122 49 -95 15 -241 -62 -268 -52 -18 -138 -13 -186 10 -39 19 -172
151 -197 196 -15 28 15 35 130 29 l111 -6 6 84 c6 81 27 157 44 155 4 0 36
-35 69 -78z m-1677 -302 c16 -29 38 -81 48 -116 14 -49 21 -62 33 -57 109 48
230 76 230 55 0 -25 -100 -208 -132 -240 -72 -73 -188 -95 -248 -45 -51 43
-74 99 -74 174 1 55 8 81 49 173 27 59 52 107 57 107 4 0 21 -23 37 -51z
m1929 -42 c67 -151 73 -214 31 -298 -30 -60 -72 -89 -130 -89 -27 0 -66 7 -87
15 -35 15 -34 13 33 -55 l69 -70 71 69 c63 62 101 91 120 91 4 0 5 -60 3 -132
-4 -149 -17 -189 -82 -245 -73 -65 -149 -65 -222 -1 -65 57 -78 96 -82 246 -2
72 -1 132 3 132 3 0 16 -5 28 -12 13 -6 7 3 -14 23 -33 31 -139 222 -139 250
0 16 79 3 160 -27 36 -14 69 -26 73 -27 5 -1 21 32 36 73 27 76 66 150 80 150
4 0 26 -42 49 -93z m-831 -47 c161 -56 298 -193 353 -353 30 -87 37 -222 16
-311 -19 -82 -71 -183 -126 -247 -50 -59 -158 -133 -235 -161 -73 -26 -235
-36 -318 -18 -95 19 -194 75 -273 154 -178 177 -219 428 -107 654 70 141 214
258 369 297 84 21 240 14 321 -15z m-1257 -306 c14 -9 54 -45 90 -80 l66 -64
49 51 c53 54 122 109 137 109 6 0 8 -53 6 -132 -3 -112 -7 -139 -25 -174 -27
-51 -80 -98 -128 -114 -75 -25 -167 30 -211 125 -21 44 -24 65 -24 173 0 67 3
122 8 122 4 0 19 -7 32 -16z m360 -426 c56 -167 43 -271 -42 -343 -29 -25 -38
-27 -97 -23 -76 4 -130 34 -170 93 -19 28 -101 226 -101 243 0 15 96 -13 163
-46 l79 -39 11 31 c26 75 96 186 117 186 3 0 21 -46 40 -102z m1514 69 c14
-18 41 -66 61 -108 l35 -75 78 39 c43 21 98 41 122 44 40 6 43 4 36 -13 -4
-10 -21 -54 -37 -97 -40 -107 -52 -128 -99 -171 -51 -46 -77 -56 -145 -56 -63
0 -103 27 -136 92 -37 73 -36 124 6 258 21 66 42 120 46 120 5 0 19 -15 33
-33z m-1279 -451 c47 -94 24 -224 -47 -262 -50 -27 -151 -25 -208 5 -40 21
-200 175 -200 193 0 13 65 20 157 16 l91 -3 4 100 c3 55 11 113 19 129 l13 28
73 -78 c40 -44 84 -101 98 -128z m1173 47 l5 -93 101 0 c104 0 149 -7 144 -21
-2 -4 -39 -45 -82 -90 -120 -124 -212 -156 -314 -109 -53 24 -82 79 -82 160 0
76 24 122 116 225 l78 88 14 -34 c8 -19 17 -76 20 -126z m-1028 -121 c133 -92
172 -147 175 -246 l2 -59 82 -29 81 -29 81 29 82 29 2 59 c3 100 38 149 184
253 57 41 75 50 82 40 13 -21 11 -71 -7 -155 -8 -42 -13 -78 -10 -81 2 -3 40
-11 83 -19 74 -13 153 -40 153 -53 -1 -9 -150 -108 -198 -131 -61 -30 -151
-27 -212 6 l-47 26 -42 -21 c-22 -12 -41 -23 -41 -25 0 -2 34 -21 76 -42 90
-46 154 -98 154 -125 0 -20 -72 -79 -97 -79 -8 0 -51 31 -96 68 -45 38 -97 79
-114 91 l-33 22 -32 -22 c-18 -12 -70 -53 -115 -91 -45 -37 -90 -68 -101 -68
-10 0 -36 15 -57 33 -31 27 -37 38 -32 58 7 26 64 68 167 123 l65 35 -46 20
-47 21 -43 -25 c-49 -28 -130 -34 -190 -14 -36 13 -219 128 -219 139 0 14 78
41 153 54 43 8 80 16 83 18 2 3 -2 37 -11 77 -16 75 -20 153 -9 164 8 8 12 6
94 -51z"/>
<path d="M1052 1804 c-172 -46 -303 -170 -353 -336 -18 -58 -21 -88 -17 -173
4 -92 8 -110 41 -180 64 -133 176 -228 322 -270 79 -23 227 -16 305 14 228 90
361 340 306 576 -63 267 -345 439 -604 369z m104 -128 c0 -57 -4 -108 -8 -111
-8 -8 -127 12 -148 25 -16 10 -4 44 48 133 31 54 35 57 71 57 l38 0 -1 -104z
m116 87 c19 -21 72 -119 82 -150 6 -19 1 -23 -63 -37 -109 -25 -101 -32 -101
94 l0 110 33 0 c20 0 40 -7 49 -17z m-286 -82 c-20 -39 -39 -71 -42 -71 -13 0
-84 41 -84 49 0 17 147 106 158 96 2 -2 -13 -35 -32 -74z m393 55 c26 -14 63
-37 81 -52 l32 -28 -47 -23 c-26 -14 -48 -23 -50 -21 -9 10 -74 148 -70 148 3
0 27 -11 54 -24z m-495 -136 l54 -31 -13 -52 c-7 -29 -16 -80 -20 -114 l-7
-63 -95 0 -94 0 7 48 c9 63 35 132 74 192 18 28 34 50 36 50 2 0 29 -14 58
-30z m702 -75 c22 -44 37 -92 41 -128 l6 -57 -97 0 -96 0 0 46 c0 25 -7 77
-16 115 -9 39 -14 72 -12 73 1 2 26 15 53 29 46 23 51 24 68 9 10 -9 34 -48
53 -87z m-516 13 c36 -6 70 -12 77 -14 11 -3 16 -144 6 -171 -4 -10 -34 -13
-111 -13 l-105 0 6 73 c9 102 24 150 45 142 9 -4 46 -12 82 -17z m318 -30 c7
-29 15 -79 18 -110 l7 -58 -112 0 -111 0 0 95 0 95 38 1 c20 0 57 6 82 13 25
8 50 14 56 15 6 0 16 -23 22 -51z m-483 -245 c4 -27 13 -76 21 -111 8 -35 14
-66 14 -70 0 -4 -25 -20 -56 -36 l-57 -30 -19 24 c-48 59 -107 221 -94 256 4
11 27 14 95 14 l90 0 6 -47z m250 -47 l0 -89 -85 -17 c-47 -10 -88 -15 -92
-11 -10 8 -38 145 -38 182 l0 30 108 -3 107 -3 0 -89z m247 49 c-1 -22 -10
-71 -18 -108 -15 -62 -19 -68 -38 -63 -11 3 -51 11 -88 17 l-68 12 0 94 0 94
108 -3 107 -3 -3 -40z m225 -11 c-6 -54 -56 -174 -91 -218 -16 -19 -17 -19
-76 9 -45 22 -59 33 -55 45 12 37 35 156 35 181 0 14 3 29 7 32 3 4 47 7 96 7
l90 0 -6 -56z m-467 -278 c0 -61 -4 -107 -10 -111 -6 -4 -23 -4 -39 0 -23 5
-36 22 -75 96 -27 50 -46 92 -45 94 10 9 80 23 122 24 l47 1 0 -104z m146 93
c24 -6 44 -16 44 -21 0 -6 -19 -46 -42 -90 -27 -53 -49 -83 -65 -89 -52 -19
-53 -17 -53 101 l0 110 36 0 c19 0 55 -5 80 -11z m-313 -104 c20 -42 37 -78
37 -81 0 -3 -31 11 -69 31 -64 34 -110 70 -100 79 6 6 83 45 89 46 3 0 22 -34
43 -75z m465 43 l32 -20 -37 -30 c-39 -31 -75 -52 -117 -68 -24 -9 -24 -8 12
70 41 87 44 88 110 48z"/>
</g>
</svg>
