<?xml version="1.0" standalone="no"?>
<!DOCTYPE svg PUBLIC "-//W3C//DTD SVG 20010904//EN"
 "http://www.w3.org/TR/2001/REC-SVG-20010904/DTD/svg10.dtd">
<svg version="1.0" xmlns="http://www.w3.org/2000/svg"
 width="250.000000pt" height="159.000000pt" viewBox="0 0 250.000000 159.000000"
 preserveAspectRatio="xMidYMid meet">

<g transform="translate(0.000000,159.000000) scale(0.100000,-0.100000)"
fill="#000000" stroke="none">
<path d="M2 1498 l3 -91 493 -303 c271 -166 493 -305 493 -309 0 -4 -222 -143
-493 -309 l-493 -303 -3 -91 -3 -92 87 0 87 0 539 320 538 321 538 -321 539
-320 87 0 87 0 -3 92 -3 91 -493 303 c-271 166 -493 305 -493 309 0 4 222 143
493 309 l493 303 3 91 3 92 -87 0 -87 0 -539 -320 -538 -321 -538 321 -539
320 -87 0 -87 0 3 -92z m330 -93 c2 -14 12 -21 36 -23 37 -4 40 -12 11 -30
-17 -11 -20 -19 -14 -49 l6 -35 -30 18 c-28 17 -31 17 -49 1 -27 -25 -32 -21
-20 14 10 28 8 33 -18 55 l-29 23 37 1 c33 0 37 3 43 31 7 32 20 29 27 -6z
m1897 -25 l36 -1 -29 -23 c-26 -22 -28 -27 -18 -55 12 -35 7 -39 -20 -14 -18
16 -21 16 -49 -1 l-30 -18 6 35 c6 30 3 38 -14 49 -29 18 -26 28 10 28 25 0
32 5 42 33 l11 32 9 -32 c9 -29 14 -33 46 -33z m-1445 -250 l31 0 -24 -19
c-20 -15 -23 -24 -18 -50 7 -35 2 -38 -24 -15 -17 15 -20 15 -43 0 -34 -22
-37 -21 -24 15 9 27 8 32 -13 47 l-24 17 30 5 c23 4 31 12 39 40 l10 35 14
-38 c13 -32 19 -37 46 -37z m1042 0 l29 -5 -24 -17 c-21 -15 -22 -20 -13 -47
13 -36 10 -37 -24 -15 -23 15 -26 15 -43 0 -26 -23 -31 -20 -24 15 5 26 2 35
-18 50 l-24 19 32 0 c27 0 33 5 44 38 l12 37 12 -35 c9 -27 18 -36 41 -40z
m-562 -285 c5 -21 12 -25 44 -25 l37 0 -29 -23 c-25 -20 -28 -27 -21 -56 l7
-33 -26 17 c-25 16 -28 16 -52 0 l-27 -17 7 35 c6 30 3 38 -21 56 l-28 20 37
1 c32 0 39 4 44 25 3 14 10 25 14 25 4 0 11 -11 14 -25z m-522 -320 c2 -14 13
-22 38 -25 l35 -5 -27 -18 c-23 -16 -26 -22 -17 -43 15 -41 11 -47 -20 -24
-18 12 -32 16 -36 10 -3 -5 -15 -14 -25 -20 -17 -9 -18 -7 -9 23 8 29 6 34
-18 54 l-28 23 37 0 c33 0 37 3 43 31 7 32 20 29 27 -6z m1087 -25 l36 0 -28
-23 c-24 -20 -26 -25 -18 -54 9 -30 8 -32 -9 -23 -10 6 -22 15 -25 20 -4 6
-18 2 -36 -10 -30 -22 -36 -15 -19 25 6 15 1 25 -19 42 l-26 22 32 1 c26 0 33
5 43 33 l13 32 10 -32 c9 -29 14 -33 46 -33z m-1498 -220 c9 -25 17 -30 42
-30 l32 -1 -24 -19 c-20 -17 -22 -26 -16 -56 l6 -37 -27 22 c-23 18 -29 19
-43 8 -35 -30 -40 -29 -30 5 8 29 6 36 -16 56 l-26 22 35 0 c30 0 35 4 41 30
4 17 9 30 11 30 3 0 10 -13 15 -30z m1897 -30 l35 0 -27 -21 c-15 -12 -25 -26
-23 -33 2 -6 8 -22 12 -35 l7 -24 -30 21 -30 22 -26 -21 c-27 -21 -32 -13 -16
26 6 15 1 25 -19 42 l-26 22 32 1 c26 0 33 5 43 33 l13 32 10 -32 c9 -29 14
-33 45 -33z"/>
<path d="M295 1571 c338 -208 936 -556 955 -556 19 0 617 348 955 556 l30 19
-87 0 -88 0 -101 -60 -101 -60 -608 0 -608 0 -101 60 -101 60 -88 0 -87 0 30
-19z"/>
<path d="M2 1298 c3 -52 3 -52 60 -86 l58 -34 0 -383 0 -383 -57 -34 c-58 -34
-58 -34 -61 -86 -2 -29 1 -52 5 -51 4 0 35 18 68 39 33 21 80 51 105 66 378
227 730 448 723 454 -6 6 -550 340 -723 444 -25 15 -72 45 -105 66 -33 21 -64
39 -68 39 -4 1 -7 -22 -5 -51z"/>
<path d="M2425 1310 c-33 -21 -80 -51 -105 -66 -173 -104 -717 -438 -723 -444
-7 -6 345 -227 723 -454 25 -15 72 -45 105 -66 33 -21 64 -39 68 -39 4 -1 7
22 5 51 -3 52 -3 52 -60 86 l-58 34 0 383 0 383 58 34 c57 34 57 34 60 86 2
29 -1 52 -5 51 -4 0 -35 -18 -68 -39z"/>
<path d="M775 306 c-253 -152 -471 -282 -485 -290 -24 -15 -20 -15 62 -16 l88
0 101 60 101 60 608 0 608 0 101 -60 101 -60 88 0 87 0 -30 19 c-228 140 -935
556 -950 558 -13 2 -188 -97 -480 -271z"/>
</g>
</svg>
